<svg xmlns="http://www.w3.org/2000/svg" viewBox="0 0 100 100" width="100" height="100" role="img" aria-label="Snipper">
<defs><linearGradient id="gsnipper" x1="0" y1="0" x2="0" y2="1"><stop offset="0" stop-color="#8A6FE0"/><stop offset="1" stop-color="#5B3FC4"/></linearGradient></defs>
<rect width="100" height="100" rx="23" fill="url(#gsnipper)"/>
<g fill="none" stroke="#fff" stroke-width="6.5" stroke-linecap="round" stroke-linejoin="round"><path d="M24 38V28a4 4 0 0 1 4-4h10"/><path d="M62 24h10a4 4 0 0 1 4 4v10"/><path d="M76 62v10a4 4 0 0 1-4 4H62"/><path d="M38 76H28a4 4 0 0 1-4-4V62"/></g><g stroke="#fff" stroke-width="6.5" stroke-linecap="round" opacity=".5"><path d="M48 24h4M48 76h4M24 48v4M76 48v4"/></g>
</svg>
